<mxfile host="app.diagrams.net" agent="Mozilla/5.0 (Windows NT 10.0; Win64; x64; rv:137.0) Gecko/20100101 Firefox/137.0" version="26.2.14">
  <diagram name="Page-1" id="h9VzNkv4iYxzm34WLyXl">
    <mxGraphModel grid="1" page="1" gridSize="10" guides="1" tooltips="1" connect="1" arrows="1" fold="1" pageScale="1" pageWidth="827" pageHeight="1169" math="0" shadow="0">
      <root>
        <mxCell id="0" />
        <mxCell id="1" parent="0" />
        <mxCell id="KSBj_jXbZ4zNxcjZg9bY-2" value="&lt;div&gt;&amp;lt;&amp;lt;interface&amp;gt;&amp;gt;&lt;/div&gt;&lt;div&gt;IGrabbable&lt;/div&gt;" style="rounded=0;whiteSpace=wrap;html=1;fontSize=16;" vertex="1" parent="1">
          <mxGeometry x="154.25" y="280" width="171" height="80" as="geometry" />
        </mxCell>
        <mxCell id="43ggxG55m2cgRZ3vXhze-36" style="edgeStyle=orthogonalEdgeStyle;rounded=0;orthogonalLoop=1;jettySize=auto;html=1;endArrow=block;endFill=1;" edge="1" parent="1" source="KSBj_jXbZ4zNxcjZg9bY-3" target="43ggxG55m2cgRZ3vXhze-30">
          <mxGeometry relative="1" as="geometry">
            <Array as="points">
              <mxPoint x="150" y="420" />
              <mxPoint x="110" y="420" />
              <mxPoint x="110" y="340" />
            </Array>
            <mxPoint x="60" y="380" as="targetPoint" />
          </mxGeometry>
        </mxCell>
        <mxCell id="KFGMoIuvuRUxvi4jMc8W-26" value="" style="edgeStyle=orthogonalEdgeStyle;rounded=0;orthogonalLoop=1;jettySize=auto;html=1;endArrow=block;endFill=0;" edge="1" parent="1" source="KSBj_jXbZ4zNxcjZg9bY-3" target="KFGMoIuvuRUxvi4jMc8W-24">
          <mxGeometry relative="1" as="geometry" />
        </mxCell>
        <mxCell id="KSBj_jXbZ4zNxcjZg9bY-3" value="&lt;div&gt;Valuable&lt;/div&gt;" style="rounded=0;whiteSpace=wrap;html=1;fontSize=24;" vertex="1" parent="1">
          <mxGeometry x="127.75" y="490" width="152" height="80" as="geometry" />
        </mxCell>
        <mxCell id="KSBj_jXbZ4zNxcjZg9bY-9" value="" style="endArrow=classic;dashed=1;html=1;rounded=0;edgeStyle=orthogonalEdgeStyle;endFill=1;exitX=0.535;exitY=0.005;exitDx=0;exitDy=0;exitPerimeter=0;" edge="1" parent="1" source="KSBj_jXbZ4zNxcjZg9bY-3" target="KSBj_jXbZ4zNxcjZg9bY-2">
          <mxGeometry width="50" height="50" relative="1" as="geometry">
            <mxPoint x="150" y="500" as="sourcePoint" />
            <mxPoint x="190" y="350" as="targetPoint" />
            <Array as="points" />
          </mxGeometry>
        </mxCell>
        <mxCell id="43ggxG55m2cgRZ3vXhze-26" style="edgeStyle=orthogonalEdgeStyle;rounded=0;orthogonalLoop=1;jettySize=auto;html=1;exitX=0.5;exitY=0;exitDx=0;exitDy=0;entryX=0;entryY=0.5;entryDx=0;entryDy=0;endArrow=diamondThin;endFill=0;endSize=10;" edge="1" parent="1" source="43ggxG55m2cgRZ3vXhze-1" target="43ggxG55m2cgRZ3vXhze-3">
          <mxGeometry relative="1" as="geometry">
            <mxPoint x="559" y="535" as="targetPoint" />
            <Array as="points">
              <mxPoint x="100" y="730" />
              <mxPoint x="100" y="630" />
              <mxPoint x="330" y="630" />
              <mxPoint x="330" y="448" />
            </Array>
          </mxGeometry>
        </mxCell>
        <mxCell id="43ggxG55m2cgRZ3vXhze-1" value="&lt;div&gt;&amp;lt;&amp;lt;interface&amp;gt;&amp;gt;&lt;/div&gt;&lt;div&gt;ICommand&lt;/div&gt;" style="rounded=0;whiteSpace=wrap;html=1;fontSize=16;" vertex="1" parent="1">
          <mxGeometry x="15.25" y="730" width="139" height="80" as="geometry" />
        </mxCell>
        <mxCell id="43ggxG55m2cgRZ3vXhze-25" style="edgeStyle=orthogonalEdgeStyle;rounded=0;orthogonalLoop=1;jettySize=auto;html=1;exitX=0.5;exitY=0;exitDx=0;exitDy=0;entryX=1;entryY=0.5;entryDx=0;entryDy=0;endArrow=diamondThin;endFill=0;endSize=10;" edge="1" parent="1" source="43ggxG55m2cgRZ3vXhze-2" target="43ggxG55m2cgRZ3vXhze-3">
          <mxGeometry relative="1" as="geometry">
            <Array as="points">
              <mxPoint x="530" y="448" />
              <mxPoint x="515" y="448" />
            </Array>
          </mxGeometry>
        </mxCell>
        <mxCell id="43ggxG55m2cgRZ3vXhze-2" value="&lt;div&gt;&amp;lt;&amp;lt;interface&amp;gt;&amp;gt;&lt;/div&gt;&lt;div&gt;IOnAction&lt;/div&gt;" style="rounded=0;whiteSpace=wrap;html=1;fontSize=16;" vertex="1" parent="1">
          <mxGeometry x="460" y="570" width="140" height="80" as="geometry" />
        </mxCell>
        <mxCell id="43ggxG55m2cgRZ3vXhze-28" style="edgeStyle=orthogonalEdgeStyle;rounded=0;orthogonalLoop=1;jettySize=auto;html=1;entryX=0.996;entryY=0.407;entryDx=0;entryDy=0;endArrow=diamondThin;startFill=0;startArrow=none;endFill=1;strokeWidth=1;endSize=10;entryPerimeter=0;" edge="1" parent="1" source="43ggxG55m2cgRZ3vXhze-3">
          <mxGeometry relative="1" as="geometry">
            <Array as="points">
              <mxPoint x="416" y="387" />
              <mxPoint x="301" y="387" />
              <mxPoint x="301" y="530" />
              <mxPoint x="280" y="530" />
            </Array>
            <mxPoint x="435.65" y="417.01" as="sourcePoint" />
            <mxPoint x="279.7919999999998" y="529.57" as="targetPoint" />
          </mxGeometry>
        </mxCell>
        <mxCell id="43ggxG55m2cgRZ3vXhze-3" value="&lt;div&gt;OnActionBind&lt;/div&gt;" style="rounded=0;whiteSpace=wrap;html=1;fontSize=16;" vertex="1" parent="1">
          <mxGeometry x="370" y="410" width="130" height="75" as="geometry" />
        </mxCell>
        <mxCell id="43ggxG55m2cgRZ3vXhze-5" value="OnGrab" style="whiteSpace=wrap;html=1;rounded=0;" vertex="1" parent="1">
          <mxGeometry x="354" y="610" width="60" height="30" as="geometry" />
        </mxCell>
        <mxCell id="43ggxG55m2cgRZ3vXhze-7" value="" style="endArrow=block;dashed=1;html=1;rounded=0;exitX=0.5;exitY=0;exitDx=0;exitDy=0;edgeStyle=orthogonalEdgeStyle;endFill=1;entryX=0;entryY=0.25;entryDx=0;entryDy=0;" edge="1" parent="1" source="43ggxG55m2cgRZ3vXhze-5" target="43ggxG55m2cgRZ3vXhze-2">
          <mxGeometry width="50" height="50" relative="1" as="geometry">
            <mxPoint x="450" y="390" as="sourcePoint" />
            <mxPoint x="450" y="230" as="targetPoint" />
          </mxGeometry>
        </mxCell>
        <mxCell id="43ggxG55m2cgRZ3vXhze-9" value="OnHeld" style="whiteSpace=wrap;html=1;rounded=0;" vertex="1" parent="1">
          <mxGeometry x="370" y="670" width="56" height="30" as="geometry" />
        </mxCell>
        <mxCell id="43ggxG55m2cgRZ3vXhze-10" value="" style="endArrow=block;dashed=1;html=1;rounded=0;exitX=1;exitY=0.25;exitDx=0;exitDy=0;edgeStyle=orthogonalEdgeStyle;endFill=1;" edge="1" parent="1" source="43ggxG55m2cgRZ3vXhze-9" target="43ggxG55m2cgRZ3vXhze-2">
          <mxGeometry width="50" height="50" relative="1" as="geometry">
            <mxPoint x="579.52" y="390" as="sourcePoint" />
            <mxPoint x="470" y="490" as="targetPoint" />
            <Array as="points">
              <mxPoint x="470" y="680" />
            </Array>
          </mxGeometry>
        </mxCell>
        <mxCell id="43ggxG55m2cgRZ3vXhze-14" value="OnRelease" style="whiteSpace=wrap;html=1;rounded=0;" vertex="1" parent="1">
          <mxGeometry x="440" y="710" width="80" height="30" as="geometry" />
        </mxCell>
        <mxCell id="43ggxG55m2cgRZ3vXhze-15" value="" style="endArrow=block;dashed=1;html=1;rounded=0;edgeStyle=orthogonalEdgeStyle;endFill=1;" edge="1" parent="1" target="43ggxG55m2cgRZ3vXhze-2">
          <mxGeometry width="50" height="50" relative="1" as="geometry">
            <mxPoint x="490" y="710" as="sourcePoint" />
            <mxPoint x="530" y="510" as="targetPoint" />
            <Array as="points">
              <mxPoint x="490" y="665" />
              <mxPoint x="518" y="665" />
            </Array>
          </mxGeometry>
        </mxCell>
        <mxCell id="43ggxG55m2cgRZ3vXhze-17" value="OnHit" style="whiteSpace=wrap;html=1;rounded=0;" vertex="1" parent="1">
          <mxGeometry x="537.5" y="710" width="42.5" height="30" as="geometry" />
        </mxCell>
        <mxCell id="43ggxG55m2cgRZ3vXhze-18" value="" style="endArrow=block;dashed=1;html=1;rounded=0;exitX=0.5;exitY=0;exitDx=0;exitDy=0;edgeStyle=orthogonalEdgeStyle;endFill=1;" edge="1" parent="1" source="43ggxG55m2cgRZ3vXhze-17" target="43ggxG55m2cgRZ3vXhze-2">
          <mxGeometry width="50" height="50" relative="1" as="geometry">
            <mxPoint x="745.52" y="390" as="sourcePoint" />
            <mxPoint x="700" y="270" as="targetPoint" />
            <Array as="points">
              <mxPoint x="556" y="710" />
            </Array>
          </mxGeometry>
        </mxCell>
        <mxCell id="43ggxG55m2cgRZ3vXhze-23" value="OnDestroy" style="whiteSpace=wrap;html=1;rounded=0;" vertex="1" parent="1">
          <mxGeometry x="600" y="700" width="70" height="30" as="geometry" />
        </mxCell>
        <mxCell id="43ggxG55m2cgRZ3vXhze-24" value="" style="endArrow=block;dashed=1;html=1;rounded=0;edgeStyle=orthogonalEdgeStyle;endFill=1;entryX=1;entryY=0.75;entryDx=0;entryDy=0;" edge="1" parent="1" source="43ggxG55m2cgRZ3vXhze-23" target="43ggxG55m2cgRZ3vXhze-2">
          <mxGeometry width="50" height="50" relative="1" as="geometry">
            <mxPoint x="630" y="670" as="sourcePoint" />
            <mxPoint x="570" y="615" as="targetPoint" />
            <Array as="points">
              <mxPoint x="630" y="630" />
            </Array>
          </mxGeometry>
        </mxCell>
        <mxCell id="43ggxG55m2cgRZ3vXhze-34" value="" style="edgeStyle=orthogonalEdgeStyle;rounded=0;orthogonalLoop=1;jettySize=auto;html=1;endArrow=block;endFill=1;" edge="1" parent="1" source="43ggxG55m2cgRZ3vXhze-30" target="43ggxG55m2cgRZ3vXhze-32">
          <mxGeometry relative="1" as="geometry" />
        </mxCell>
        <mxCell id="43ggxG55m2cgRZ3vXhze-30" value="&lt;div&gt;&amp;lt;&amp;lt;abstract&amp;gt;&amp;gt;&lt;/div&gt;&lt;div&gt;BaseMovable&lt;/div&gt;" style="rounded=0;whiteSpace=wrap;html=1;fontSize=16;" vertex="1" parent="1">
          <mxGeometry x="-70" y="290" width="150" height="80" as="geometry" />
        </mxCell>
        <mxCell id="43ggxG55m2cgRZ3vXhze-32" value="Physics Engine" style="rounded=0;whiteSpace=wrap;html=1;fontSize=16;" vertex="1" parent="1">
          <mxGeometry x="-110" y="100" width="130" height="75" as="geometry" />
        </mxCell>
        <mxCell id="43ggxG55m2cgRZ3vXhze-37" value="OnPlayerInput" style="whiteSpace=wrap;html=1;rounded=0;" vertex="1" parent="1">
          <mxGeometry x="650" y="630" width="90" height="30" as="geometry" />
        </mxCell>
        <mxCell id="43ggxG55m2cgRZ3vXhze-38" value="" style="endArrow=block;dashed=1;html=1;rounded=0;exitX=0.5;exitY=0;exitDx=0;exitDy=0;edgeStyle=orthogonalEdgeStyle;endFill=1;" edge="1" parent="1" source="43ggxG55m2cgRZ3vXhze-37" target="43ggxG55m2cgRZ3vXhze-2">
          <mxGeometry width="50" height="50" relative="1" as="geometry">
            <mxPoint x="815.52" y="390" as="sourcePoint" />
            <mxPoint x="720" y="480" as="targetPoint" />
            <Array as="points">
              <mxPoint x="695" y="595" />
            </Array>
          </mxGeometry>
        </mxCell>
        <mxCell id="43ggxG55m2cgRZ3vXhze-40" value="ShootCommand" style="whiteSpace=wrap;html=1;rounded=0;" vertex="1" parent="1">
          <mxGeometry x="154.25" y="660" width="99" height="30" as="geometry" />
        </mxCell>
        <mxCell id="43ggxG55m2cgRZ3vXhze-41" value="" style="endArrow=block;dashed=1;html=1;rounded=0;edgeStyle=orthogonalEdgeStyle;endFill=1;" edge="1" parent="1" target="43ggxG55m2cgRZ3vXhze-1">
          <mxGeometry width="50" height="50" relative="1" as="geometry">
            <mxPoint x="199" y="690" as="sourcePoint" />
            <mxPoint x="150" y="720" as="targetPoint" />
            <Array as="points">
              <mxPoint x="199" y="700" />
              <mxPoint x="130" y="700" />
            </Array>
          </mxGeometry>
        </mxCell>
        <mxCell id="KFGMoIuvuRUxvi4jMc8W-3" value="" style="edgeStyle=orthogonalEdgeStyle;rounded=0;orthogonalLoop=1;jettySize=auto;html=1;dashed=1;endArrow=block;endFill=0;" edge="1" parent="1" source="43ggxG55m2cgRZ3vXhze-43" target="KFGMoIuvuRUxvi4jMc8W-2">
          <mxGeometry relative="1" as="geometry">
            <Array as="points">
              <mxPoint x="-290" y="835" />
              <mxPoint x="-290" y="540" />
              <mxPoint x="-180" y="540" />
            </Array>
          </mxGeometry>
        </mxCell>
        <mxCell id="KFGMoIuvuRUxvi4jMc8W-16" value="" style="edgeStyle=orthogonalEdgeStyle;rounded=0;orthogonalLoop=1;jettySize=auto;html=1;dashed=1;exitX=1;exitY=0.25;exitDx=0;exitDy=0;entryX=-0.005;entryY=0.86;entryDx=0;entryDy=0;entryPerimeter=0;endArrow=block;endFill=1;" edge="1" parent="1" source="43ggxG55m2cgRZ3vXhze-43" target="43ggxG55m2cgRZ3vXhze-1">
          <mxGeometry relative="1" as="geometry">
            <mxPoint x="49" y="755" as="targetPoint" />
            <Array as="points">
              <mxPoint x="-109" y="830" />
              <mxPoint x="-50" y="830" />
              <mxPoint x="-50" y="799" />
            </Array>
          </mxGeometry>
        </mxCell>
        <mxCell id="43ggxG55m2cgRZ3vXhze-43" value="ModifyVoiceCommand" style="whiteSpace=wrap;html=1;rounded=0;" vertex="1" parent="1">
          <mxGeometry x="-244" y="820" width="134.5" height="30" as="geometry" />
        </mxCell>
        <mxCell id="KFGMoIuvuRUxvi4jMc8W-2" value="&lt;div&gt;&amp;lt;&amp;lt;interface&amp;gt;&amp;gt;&lt;/div&gt;&lt;div&gt;IHasVoice&lt;/div&gt;" style="rounded=0;whiteSpace=wrap;html=1;fontSize=16;" vertex="1" parent="1">
          <mxGeometry x="-250" y="340" width="140" height="84" as="geometry" />
        </mxCell>
        <mxCell id="KFGMoIuvuRUxvi4jMc8W-4" value="JumpCommand" style="whiteSpace=wrap;html=1;rounded=0;" vertex="1" parent="1">
          <mxGeometry x="131" y="870" width="99" height="30" as="geometry" />
        </mxCell>
        <mxCell id="KFGMoIuvuRUxvi4jMc8W-5" value="" style="endArrow=block;dashed=1;html=1;rounded=0;edgeStyle=orthogonalEdgeStyle;endFill=1;exitX=0.5;exitY=0;exitDx=0;exitDy=0;" edge="1" parent="1" source="KFGMoIuvuRUxvi4jMc8W-4" target="43ggxG55m2cgRZ3vXhze-1">
          <mxGeometry width="50" height="50" relative="1" as="geometry">
            <mxPoint x="120" y="820" as="sourcePoint" />
            <mxPoint x="120" y="760" as="targetPoint" />
            <Array as="points">
              <mxPoint x="180" y="811" />
              <mxPoint x="120" y="811" />
            </Array>
          </mxGeometry>
        </mxCell>
        <mxCell id="KFGMoIuvuRUxvi4jMc8W-6" value="PlaySoundCommand" style="whiteSpace=wrap;html=1;rounded=0;" vertex="1" parent="1">
          <mxGeometry x="248" y="810" width="130" height="30" as="geometry" />
        </mxCell>
        <mxCell id="KFGMoIuvuRUxvi4jMc8W-7" value="" style="endArrow=block;dashed=1;html=1;rounded=0;edgeStyle=orthogonalEdgeStyle;endFill=1;" edge="1" parent="1" target="43ggxG55m2cgRZ3vXhze-1">
          <mxGeometry width="50" height="50" relative="1" as="geometry">
            <mxPoint x="310" y="810" as="sourcePoint" />
            <mxPoint x="140" y="760" as="targetPoint" />
            <Array as="points">
              <mxPoint x="313" y="810" />
              <mxPoint x="313" y="780" />
            </Array>
          </mxGeometry>
        </mxCell>
        <mxCell id="KFGMoIuvuRUxvi4jMc8W-18" value="" style="edgeStyle=orthogonalEdgeStyle;rounded=0;orthogonalLoop=1;jettySize=auto;html=1;dashed=1;exitX=0.986;exitY=-0.025;exitDx=0;exitDy=0;exitPerimeter=0;endArrow=block;endFill=1;" edge="1" parent="1" source="D8UodOY2xaZe4jPJJZOA-3" target="KFGMoIuvuRUxvi4jMc8W-2">
          <mxGeometry relative="1" as="geometry">
            <Array as="points">
              <mxPoint x="-582" y="310" />
              <mxPoint x="-205" y="310" />
            </Array>
          </mxGeometry>
        </mxCell>
        <mxCell id="KFGMoIuvuRUxvi4jMc8W-19" value="" style="edgeStyle=orthogonalEdgeStyle;rounded=0;orthogonalLoop=1;jettySize=auto;html=1;dashed=1;endArrow=block;endFill=1;" edge="1" parent="1" source="D8UodOY2xaZe4jPJJZOA-4" target="KFGMoIuvuRUxvi4jMc8W-17">
          <mxGeometry relative="1" as="geometry">
            <Array as="points">
              <mxPoint x="-660" y="340" />
              <mxPoint x="-485" y="340" />
              <mxPoint x="-485" y="390" />
            </Array>
            <mxPoint x="-500" y="330" as="sourcePoint" />
            <mxPoint x="-419.99999999999955" y="376" as="targetPoint" />
          </mxGeometry>
        </mxCell>
        <mxCell id="KFGMoIuvuRUxvi4jMc8W-28" value="" style="edgeStyle=orthogonalEdgeStyle;rounded=0;orthogonalLoop=1;jettySize=auto;html=1;exitX=1;exitY=0.5;exitDx=0;exitDy=0;endArrow=block;endFill=1;" edge="1" parent="1" source="D8UodOY2xaZe4jPJJZOA-2" target="43ggxG55m2cgRZ3vXhze-30">
          <mxGeometry relative="1" as="geometry">
            <mxPoint x="-20" y="350" as="targetPoint" />
            <Array as="points">
              <mxPoint x="-110" y="259" />
              <mxPoint x="-110" y="320" />
            </Array>
            <mxPoint x="-450" y="200.02857142857135" as="sourcePoint" />
          </mxGeometry>
        </mxCell>
        <mxCell id="KFGMoIuvuRUxvi4jMc8W-10" style="edgeStyle=orthogonalEdgeStyle;rounded=0;orthogonalLoop=1;jettySize=auto;html=1;exitX=0.5;exitY=1;exitDx=0;exitDy=0;" edge="1" parent="1" source="KFGMoIuvuRUxvi4jMc8W-6" target="KFGMoIuvuRUxvi4jMc8W-6">
          <mxGeometry relative="1" as="geometry" />
        </mxCell>
        <mxCell id="KFGMoIuvuRUxvi4jMc8W-11" value="ExplodeCommand" style="whiteSpace=wrap;html=1;rounded=0;" vertex="1" parent="1">
          <mxGeometry x="230" y="730" width="110" height="30" as="geometry" />
        </mxCell>
        <mxCell id="KFGMoIuvuRUxvi4jMc8W-13" value="" style="endArrow=block;dashed=1;html=1;rounded=0;edgeStyle=orthogonalEdgeStyle;endFill=1;exitX=0;exitY=0.25;exitDx=0;exitDy=0;" edge="1" parent="1" source="KFGMoIuvuRUxvi4jMc8W-11" target="43ggxG55m2cgRZ3vXhze-1">
          <mxGeometry width="50" height="50" relative="1" as="geometry">
            <mxPoint x="200" y="820" as="sourcePoint" />
            <mxPoint x="185" y="755" as="targetPoint" />
            <Array as="points">
              <mxPoint x="230" y="740" />
            </Array>
          </mxGeometry>
        </mxCell>
        <mxCell id="KFGMoIuvuRUxvi4jMc8W-17" value="&lt;div&gt;&amp;lt;&amp;lt;interface&amp;gt;&amp;gt;&lt;/div&gt;&lt;div&gt;ICanChat&lt;/div&gt;" style="rounded=0;whiteSpace=wrap;html=1;fontSize=16;" vertex="1" parent="1">
          <mxGeometry x="-420" y="350" width="120" height="80" as="geometry" />
        </mxCell>
        <mxCell id="KFGMoIuvuRUxvi4jMc8W-21" value="" style="edgeStyle=orthogonalEdgeStyle;rounded=0;orthogonalLoop=1;jettySize=auto;html=1;dashed=1;endArrow=block;endFill=1;" edge="1" parent="1" source="KFGMoIuvuRUxvi4jMc8W-20" target="43ggxG55m2cgRZ3vXhze-1">
          <mxGeometry relative="1" as="geometry">
            <mxPoint x="-500" y="717.5" as="targetPoint" />
            <Array as="points">
              <mxPoint x="-80" y="850" />
              <mxPoint x="85" y="850" />
            </Array>
          </mxGeometry>
        </mxCell>
        <mxCell id="KFGMoIuvuRUxvi4jMc8W-22" value="" style="edgeStyle=orthogonalEdgeStyle;rounded=0;orthogonalLoop=1;jettySize=auto;html=1;dashed=1;endArrow=block;endFill=0;" edge="1" parent="1" source="KFGMoIuvuRUxvi4jMc8W-20" target="KFGMoIuvuRUxvi4jMc8W-17">
          <mxGeometry relative="1" as="geometry" />
        </mxCell>
        <mxCell id="KFGMoIuvuRUxvi4jMc8W-20" value="TypeChatCommand" style="whiteSpace=wrap;html=1;rounded=0;" vertex="1" parent="1">
          <mxGeometry x="-160" y="870" width="134.5" height="30" as="geometry" />
        </mxCell>
        <mxCell id="KFGMoIuvuRUxvi4jMc8W-23" value="&lt;div&gt;R.E.P.O.&lt;/div&gt;&lt;div&gt;Player Locomotion and Interactions.&lt;/div&gt;&lt;div&gt;Item and Object (Valuables) Variations and Effects.&lt;/div&gt;" style="text;strokeColor=none;fillColor=none;align=center;verticalAlign=middle;spacingLeft=4;spacingRight=4;overflow=hidden;points=[[0,0.5],[1,0.5]];portConstraint=eastwest;rotatable=0;whiteSpace=wrap;html=1;fontSize=18;fontStyle=1" vertex="1" parent="1">
          <mxGeometry x="-389" y="-80" width="520" height="90" as="geometry" />
        </mxCell>
        <mxCell id="KFGMoIuvuRUxvi4jMc8W-24" value="&lt;div&gt;ValuableConfiguration&lt;/div&gt;" style="rounded=0;whiteSpace=wrap;html=1;" vertex="1" parent="1">
          <mxGeometry x="-40" y="475" width="130" height="40" as="geometry" />
        </mxCell>
        <mxCell id="KFGMoIuvuRUxvi4jMc8W-31" value="" style="edgeStyle=orthogonalEdgeStyle;rounded=0;orthogonalLoop=1;jettySize=auto;html=1;dashed=1;exitX=1;exitY=0.5;exitDx=0;exitDy=0;endArrow=block;endFill=1;" edge="1" parent="1" source="KFGMoIuvuRUxvi4jMc8W-30" target="43ggxG55m2cgRZ3vXhze-1">
          <mxGeometry relative="1" as="geometry">
            <Array as="points">
              <mxPoint x="-127" y="780" />
              <mxPoint x="-20" y="780" />
              <mxPoint x="-20" y="770" />
            </Array>
          </mxGeometry>
        </mxCell>
        <mxCell id="KFGMoIuvuRUxvi4jMc8W-30" value="SpinCommand" style="whiteSpace=wrap;html=1;rounded=0;" vertex="1" parent="1">
          <mxGeometry x="-226.25" y="770" width="99" height="30" as="geometry" />
        </mxCell>
        <mxCell id="KFGMoIuvuRUxvi4jMc8W-35" value="" style="edgeStyle=orthogonalEdgeStyle;rounded=0;orthogonalLoop=1;jettySize=auto;html=1;exitX=0.872;exitY=0.042;exitDx=0;exitDy=0;dashed=1;exitPerimeter=0;endArrow=block;endFill=1;" edge="1" parent="1" source="KFGMoIuvuRUxvi4jMc8W-34" target="43ggxG55m2cgRZ3vXhze-1">
          <mxGeometry relative="1" as="geometry">
            <mxPoint x="10" y="770" as="targetPoint" />
            <Array as="points">
              <mxPoint x="99" y="871" />
            </Array>
          </mxGeometry>
        </mxCell>
        <mxCell id="KFGMoIuvuRUxvi4jMc8W-37" value="" style="edgeStyle=orthogonalEdgeStyle;rounded=0;orthogonalLoop=1;jettySize=auto;html=1;endArrow=block;endFill=0;" edge="1" parent="1" source="KFGMoIuvuRUxvi4jMc8W-34" target="KFGMoIuvuRUxvi4jMc8W-36">
          <mxGeometry relative="1" as="geometry" />
        </mxCell>
        <mxCell id="KFGMoIuvuRUxvi4jMc8W-34" value="ModifyUICommand" style="whiteSpace=wrap;html=1;rounded=0;" vertex="1" parent="1">
          <mxGeometry x="-17" y="870" width="134.5" height="30" as="geometry" />
        </mxCell>
        <mxCell id="KFGMoIuvuRUxvi4jMc8W-36" value="UI" style="rounded=0;whiteSpace=wrap;html=1;" vertex="1" parent="1">
          <mxGeometry x="15.25" y="930" width="70" height="40" as="geometry" />
        </mxCell>
        <mxCell id="KFGMoIuvuRUxvi4jMc8W-42" value="" style="edgeStyle=orthogonalEdgeStyle;rounded=0;orthogonalLoop=1;jettySize=auto;html=1;dashed=1;endArrow=block;endFill=1;" edge="1" parent="1" source="KFGMoIuvuRUxvi4jMc8W-38" target="43ggxG55m2cgRZ3vXhze-2">
          <mxGeometry relative="1" as="geometry">
            <mxPoint x="560" y="570" as="targetPoint" />
            <Array as="points">
              <mxPoint x="580" y="550" />
            </Array>
          </mxGeometry>
        </mxCell>
        <mxCell id="KFGMoIuvuRUxvi4jMc8W-38" value="&lt;div&gt;OnDetach&lt;/div&gt;" style="rounded=0;whiteSpace=wrap;html=1;" vertex="1" parent="1">
          <mxGeometry x="650" y="530" width="70" height="30" as="geometry" />
        </mxCell>
        <mxCell id="KFGMoIuvuRUxvi4jMc8W-40" value="" style="edgeStyle=orthogonalEdgeStyle;rounded=0;orthogonalLoop=1;jettySize=auto;html=1;dashed=1;endArrow=block;endFill=1;" edge="1" parent="1" source="KFGMoIuvuRUxvi4jMc8W-39" target="43ggxG55m2cgRZ3vXhze-2">
          <mxGeometry relative="1" as="geometry">
            <mxPoint x="540" y="570" as="targetPoint" />
            <Array as="points">
              <mxPoint x="600" y="530" />
              <mxPoint x="540" y="530" />
            </Array>
          </mxGeometry>
        </mxCell>
        <mxCell id="KFGMoIuvuRUxvi4jMc8W-39" value="OnAttach" style="rounded=0;whiteSpace=wrap;html=1;" vertex="1" parent="1">
          <mxGeometry x="560" y="480" width="70" height="30" as="geometry" />
        </mxCell>
        <mxCell id="KFGMoIuvuRUxvi4jMc8W-43" style="edgeStyle=orthogonalEdgeStyle;rounded=0;orthogonalLoop=1;jettySize=auto;html=1;exitX=0.5;exitY=1;exitDx=0;exitDy=0;" edge="1" parent="1" source="43ggxG55m2cgRZ3vXhze-9" target="43ggxG55m2cgRZ3vXhze-9">
          <mxGeometry relative="1" as="geometry" />
        </mxCell>
        <mxCell id="KFGMoIuvuRUxvi4jMc8W-51" value="AudioManager" style="rounded=0;whiteSpace=wrap;html=1;" vertex="1" parent="1">
          <mxGeometry x="263" y="870" width="100" height="40" as="geometry" />
        </mxCell>
        <mxCell id="KFGMoIuvuRUxvi4jMc8W-52" value="" style="edgeStyle=orthogonalEdgeStyle;rounded=0;orthogonalLoop=1;jettySize=auto;html=1;endArrow=block;endFill=0;exitX=0.5;exitY=1;exitDx=0;exitDy=0;entryX=0.5;entryY=0;entryDx=0;entryDy=0;" edge="1" parent="1" source="KFGMoIuvuRUxvi4jMc8W-6" target="KFGMoIuvuRUxvi4jMc8W-51">
          <mxGeometry relative="1" as="geometry">
            <mxPoint x="290" y="850" as="sourcePoint" />
            <mxPoint x="190" y="850" as="targetPoint" />
          </mxGeometry>
        </mxCell>
        <mxCell id="KFGMoIuvuRUxvi4jMc8W-61" value="" style="edgeStyle=orthogonalEdgeStyle;rounded=0;orthogonalLoop=1;jettySize=auto;html=1;dashed=1;entryX=0;entryY=0.25;entryDx=0;entryDy=0;endArrow=block;endFill=1;" edge="1" parent="1" source="KFGMoIuvuRUxvi4jMc8W-55" target="43ggxG55m2cgRZ3vXhze-1">
          <mxGeometry relative="1" as="geometry">
            <Array as="points">
              <mxPoint x="-100" y="750" />
            </Array>
          </mxGeometry>
        </mxCell>
        <mxCell id="KFGMoIuvuRUxvi4jMc8W-55" value="ApplyModificationCommand" style="whiteSpace=wrap;html=1;rounded=0;" vertex="1" parent="1">
          <mxGeometry x="-226.25" y="700" width="160" height="30" as="geometry" />
        </mxCell>
        <mxCell id="KFGMoIuvuRUxvi4jMc8W-62" value="" style="edgeStyle=orthogonalEdgeStyle;rounded=0;orthogonalLoop=1;jettySize=auto;html=1;dashed=1;entryX=0.146;entryY=0.014;entryDx=0;entryDy=0;entryPerimeter=0;endArrow=block;endFill=1;" edge="1" parent="1" source="KFGMoIuvuRUxvi4jMc8W-58" target="43ggxG55m2cgRZ3vXhze-1">
          <mxGeometry relative="1" as="geometry">
            <Array as="points">
              <mxPoint x="36" y="680" />
            </Array>
          </mxGeometry>
        </mxCell>
        <mxCell id="xmf9FVP425KwAZw91W8d-2" style="edgeStyle=orthogonalEdgeStyle;rounded=0;orthogonalLoop=1;jettySize=auto;html=1;endArrow=block;endFill=0;dashed=1;" edge="1" parent="1" source="43ggxG55m2cgRZ3vXhze-1" target="43ggxG55m2cgRZ3vXhze-30">
          <mxGeometry relative="1" as="geometry">
            <Array as="points">
              <mxPoint x="70" y="600" />
              <mxPoint x="-90" y="600" />
              <mxPoint x="-90" y="450" />
              <mxPoint x="10" y="450" />
            </Array>
          </mxGeometry>
        </mxCell>
        <mxCell id="KFGMoIuvuRUxvi4jMc8W-58" value="DeapplyModificationCommand" style="whiteSpace=wrap;html=1;rounded=0;" vertex="1" parent="1">
          <mxGeometry x="-197.25" y="630" width="171.75" height="30" as="geometry" />
        </mxCell>
        <mxCell id="D8UodOY2xaZe4jPJJZOA-1" value="Player" style="swimlane;html=1;fontStyle=0;childLayout=stackLayout;horizontal=1;startSize=26;fillColor=none;horizontalStack=0;resizeParent=1;resizeLast=0;collapsible=1;marginBottom=0;swimlaneFillColor=#ffffff;rounded=0;shadow=0;comic=0;labelBackgroundColor=none;strokeWidth=1;fontFamily=Verdana;fontSize=10;align=center;" vertex="1" parent="1">
          <mxGeometry x="-740" y="220" width="160" height="156" as="geometry" />
        </mxCell>
        <mxCell id="D8UodOY2xaZe4jPJJZOA-2" value="+ Walk()" style="text;html=1;strokeColor=none;fillColor=none;align=left;verticalAlign=top;spacingLeft=4;spacingRight=4;whiteSpace=wrap;overflow=hidden;rotatable=0;points=[[0,0.5],[1,0.5]];portConstraint=eastwest;" vertex="1" parent="D8UodOY2xaZe4jPJJZOA-1">
          <mxGeometry y="26" width="160" height="26" as="geometry" />
        </mxCell>
        <mxCell id="D8UodOY2xaZe4jPJJZOA-3" value="+ Run()" style="text;html=1;strokeColor=none;fillColor=none;align=left;verticalAlign=top;spacingLeft=4;spacingRight=4;whiteSpace=wrap;overflow=hidden;rotatable=0;points=[[0,0.5],[1,0.5]];portConstraint=eastwest;" vertex="1" parent="D8UodOY2xaZe4jPJJZOA-1">
          <mxGeometry y="52" width="160" height="26" as="geometry" />
        </mxCell>
        <mxCell id="D8UodOY2xaZe4jPJJZOA-4" value="+ Crouch()" style="text;html=1;strokeColor=none;fillColor=none;align=left;verticalAlign=top;spacingLeft=4;spacingRight=4;whiteSpace=wrap;overflow=hidden;rotatable=0;points=[[0,0.5],[1,0.5]];portConstraint=eastwest;" vertex="1" parent="D8UodOY2xaZe4jPJJZOA-1">
          <mxGeometry y="78" width="160" height="26" as="geometry" />
        </mxCell>
        <mxCell id="D8UodOY2xaZe4jPJJZOA-5" value="+ Jump()" style="text;html=1;strokeColor=none;fillColor=none;align=left;verticalAlign=top;spacingLeft=4;spacingRight=4;whiteSpace=wrap;overflow=hidden;rotatable=0;points=[[0,0.5],[1,0.5]];portConstraint=eastwest;" vertex="1" parent="D8UodOY2xaZe4jPJJZOA-1">
          <mxGeometry y="104" width="160" height="26" as="geometry" />
        </mxCell>
        <mxCell id="D8UodOY2xaZe4jPJJZOA-6" value="+ Objectivy()" style="text;html=1;strokeColor=none;fillColor=none;align=left;verticalAlign=top;spacingLeft=4;spacingRight=4;whiteSpace=wrap;overflow=hidden;rotatable=0;points=[[0,0.5],[1,0.5]];portConstraint=eastwest;" vertex="1" parent="D8UodOY2xaZe4jPJJZOA-1">
          <mxGeometry y="130" width="160" height="26" as="geometry" />
        </mxCell>
        <mxCell id="D8UodOY2xaZe4jPJJZOA-10" style="edgeStyle=orthogonalEdgeStyle;rounded=0;orthogonalLoop=1;jettySize=auto;html=1;endArrow=diamondThin;endFill=0;endSize=10;exitX=1;exitY=0.5;exitDx=0;exitDy=0;" edge="1" parent="1" source="D8UodOY2xaZe4jPJJZOA-14" target="D8UodOY2xaZe4jPJJZOA-5">
          <mxGeometry relative="1" as="geometry">
            <mxPoint x="-741" y="330" as="targetPoint" />
            <mxPoint x="-820" y="280" as="sourcePoint" />
            <Array as="points">
              <mxPoint x="-840" y="300" />
              <mxPoint x="-790" y="300" />
              <mxPoint x="-790" y="310" />
              <mxPoint x="-770" y="310" />
              <mxPoint x="-770" y="337" />
            </Array>
          </mxGeometry>
        </mxCell>
        <mxCell id="D8UodOY2xaZe4jPJJZOA-12" value="PlayerControler" style="swimlane;html=1;fontStyle=0;childLayout=stackLayout;horizontal=1;startSize=26;fillColor=none;horizontalStack=0;resizeParent=1;resizeLast=0;collapsible=1;marginBottom=0;swimlaneFillColor=#ffffff;rounded=0;shadow=0;comic=0;labelBackgroundColor=none;strokeWidth=1;fontFamily=Verdana;fontSize=10;align=center;" vertex="1" parent="1">
          <mxGeometry x="-1000" y="234" width="160" height="140" as="geometry" />
        </mxCell>
        <mxCell id="D8UodOY2xaZe4jPJJZOA-13" value="+ Walk()" style="text;html=1;strokeColor=none;fillColor=none;align=left;verticalAlign=top;spacingLeft=4;spacingRight=4;whiteSpace=wrap;overflow=hidden;rotatable=0;points=[[0,0.5],[1,0.5]];portConstraint=eastwest;" vertex="1" parent="D8UodOY2xaZe4jPJJZOA-12">
          <mxGeometry y="26" width="160" height="26" as="geometry" />
        </mxCell>
        <mxCell id="D8UodOY2xaZe4jPJJZOA-14" value="+ Run()" style="text;html=1;strokeColor=none;fillColor=none;align=left;verticalAlign=top;spacingLeft=4;spacingRight=4;whiteSpace=wrap;overflow=hidden;rotatable=0;points=[[0,0.5],[1,0.5]];portConstraint=eastwest;" vertex="1" parent="D8UodOY2xaZe4jPJJZOA-12">
          <mxGeometry y="52" width="160" height="26" as="geometry" />
        </mxCell>
        <mxCell id="D8UodOY2xaZe4jPJJZOA-15" value="+ Crouch()" style="text;html=1;strokeColor=none;fillColor=none;align=left;verticalAlign=top;spacingLeft=4;spacingRight=4;whiteSpace=wrap;overflow=hidden;rotatable=0;points=[[0,0.5],[1,0.5]];portConstraint=eastwest;" vertex="1" parent="D8UodOY2xaZe4jPJJZOA-12">
          <mxGeometry y="78" width="160" height="26" as="geometry" />
        </mxCell>
        <mxCell id="D8UodOY2xaZe4jPJJZOA-16" value="+ Jump()" style="text;html=1;strokeColor=none;fillColor=none;align=left;verticalAlign=top;spacingLeft=4;spacingRight=4;whiteSpace=wrap;overflow=hidden;rotatable=0;points=[[0,0.5],[1,0.5]];portConstraint=eastwest;" vertex="1" parent="D8UodOY2xaZe4jPJJZOA-12">
          <mxGeometry y="104" width="160" height="26" as="geometry" />
        </mxCell>
        <mxCell id="D8UodOY2xaZe4jPJJZOA-17" style="edgeStyle=orthogonalEdgeStyle;rounded=0;orthogonalLoop=1;jettySize=auto;html=1;endArrow=diamondThin;endFill=0;endSize=10;" edge="1" parent="1" target="D8UodOY2xaZe4jPJJZOA-1">
          <mxGeometry relative="1" as="geometry">
            <mxPoint x="-750" y="458" as="targetPoint" />
            <mxPoint x="-420" y="140" as="sourcePoint" />
            <Array as="points">
              <mxPoint x="-420" y="139" />
              <mxPoint x="-490" y="139" />
              <mxPoint x="-490" y="170" />
              <mxPoint x="-590" y="170" />
            </Array>
          </mxGeometry>
        </mxCell>
        <mxCell id="D8UodOY2xaZe4jPJJZOA-18" value="InteractionHandler" style="swimlane;html=1;fontStyle=0;childLayout=stackLayout;horizontal=1;startSize=26;fillColor=none;horizontalStack=0;resizeParent=1;resizeLast=0;collapsible=1;marginBottom=0;swimlaneFillColor=#ffffff;rounded=0;shadow=0;comic=0;labelBackgroundColor=none;strokeWidth=1;fontFamily=Verdana;fontSize=10;align=center;" vertex="1" parent="1">
          <mxGeometry x="-425" y="90" width="180" height="83" as="geometry" />
        </mxCell>
        <mxCell id="D8UodOY2xaZe4jPJJZOA-19" value="+ Interact(interactableTarget)" style="text;html=1;strokeColor=none;fillColor=none;align=left;verticalAlign=top;spacingLeft=4;spacingRight=4;whiteSpace=wrap;overflow=hidden;rotatable=0;points=[[0,0.5],[1,0.5]];portConstraint=eastwest;" vertex="1" parent="D8UodOY2xaZe4jPJJZOA-18">
          <mxGeometry y="26" width="180" height="26" as="geometry" />
        </mxCell>
        <mxCell id="D8UodOY2xaZe4jPJJZOA-20" value="+ OnHover(interactableTarget)" style="text;html=1;strokeColor=none;fillColor=none;align=left;verticalAlign=top;spacingLeft=4;spacingRight=4;whiteSpace=wrap;overflow=hidden;rotatable=0;points=[[0,0.5],[1,0.5]];portConstraint=eastwest;" vertex="1" parent="D8UodOY2xaZe4jPJJZOA-18">
          <mxGeometry y="52" width="180" height="26" as="geometry" />
        </mxCell>
        <mxCell id="D8UodOY2xaZe4jPJJZOA-21" style="edgeStyle=orthogonalEdgeStyle;rounded=0;orthogonalLoop=1;jettySize=auto;html=1;exitX=0.5;exitY=0;exitDx=0;exitDy=0;endArrow=diamondThin;endFill=0;endSize=10;entryX=0.5;entryY=1;entryDx=0;entryDy=0;" edge="1" parent="1" source="D8UodOY2xaZe4jPJJZOA-22" target="D8UodOY2xaZe4jPJJZOA-1">
          <mxGeometry relative="1" as="geometry">
            <mxPoint x="-750" y="458" as="targetPoint" />
          </mxGeometry>
        </mxCell>
        <mxCell id="Rh1y7PiZWF1uknGt1DZ_-5" style="edgeStyle=orthogonalEdgeStyle;rounded=0;orthogonalLoop=1;jettySize=auto;html=1;endArrow=diamondThin;endFill=1;exitX=0;exitY=0.5;exitDx=0;exitDy=0;endSize=10;" edge="1" parent="1" source="Rh1y7PiZWF1uknGt1DZ_-2" target="D8UodOY2xaZe4jPJJZOA-22">
          <mxGeometry relative="1" as="geometry">
            <Array as="points">
              <mxPoint x="-547" y="578" />
              <mxPoint x="-547" y="520" />
            </Array>
          </mxGeometry>
        </mxCell>
        <mxCell id="D8UodOY2xaZe4jPJJZOA-22" value="Inventory" style="swimlane;html=1;fontStyle=0;childLayout=stackLayout;horizontal=1;startSize=26;fillColor=none;horizontalStack=0;resizeParent=1;resizeLast=0;collapsible=1;marginBottom=0;swimlaneFillColor=#ffffff;rounded=0;shadow=0;comic=0;labelBackgroundColor=none;strokeWidth=1;fontFamily=Verdana;fontSize=10;align=center;" vertex="1" parent="1">
          <mxGeometry x="-740" y="460" width="160" height="110" as="geometry" />
        </mxCell>
        <mxCell id="D8UodOY2xaZe4jPJJZOA-23" value="List&amp;lt;Items&amp;gt;" style="text;html=1;strokeColor=none;fillColor=none;align=left;verticalAlign=top;spacingLeft=4;spacingRight=4;whiteSpace=wrap;overflow=hidden;rotatable=0;points=[[0,0.5],[1,0.5]];portConstraint=eastwest;" vertex="1" parent="D8UodOY2xaZe4jPJJZOA-22">
          <mxGeometry y="26" width="160" height="26" as="geometry" />
        </mxCell>
        <mxCell id="D8UodOY2xaZe4jPJJZOA-24" value="- AddItem()" style="text;html=1;strokeColor=none;fillColor=none;align=left;verticalAlign=top;spacingLeft=4;spacingRight=4;whiteSpace=wrap;overflow=hidden;rotatable=0;points=[[0,0.5],[1,0.5]];portConstraint=eastwest;" vertex="1" parent="D8UodOY2xaZe4jPJJZOA-22">
          <mxGeometry y="52" width="160" height="26" as="geometry" />
        </mxCell>
        <mxCell id="D8UodOY2xaZe4jPJJZOA-26" value="- DropItem()" style="text;html=1;strokeColor=none;fillColor=none;align=left;verticalAlign=top;spacingLeft=4;spacingRight=4;whiteSpace=wrap;overflow=hidden;rotatable=0;points=[[0,0.5],[1,0.5]];portConstraint=eastwest;" vertex="1" parent="D8UodOY2xaZe4jPJJZOA-22">
          <mxGeometry y="78" width="160" height="26" as="geometry" />
        </mxCell>
        <mxCell id="tQ5h_0FvlJfg09VS-1oc-4" style="edgeStyle=orthogonalEdgeStyle;rounded=0;orthogonalLoop=1;jettySize=auto;html=1;dashed=1;endArrow=block;endFill=1;" edge="1" parent="1" source="D8UodOY2xaZe4jPJJZOA-28" target="KSBj_jXbZ4zNxcjZg9bY-2">
          <mxGeometry relative="1" as="geometry">
            <Array as="points">
              <mxPoint x="180" y="190" />
              <mxPoint x="230" y="190" />
            </Array>
          </mxGeometry>
        </mxCell>
        <mxCell id="tQ5h_0FvlJfg09VS-1oc-7" style="edgeStyle=orthogonalEdgeStyle;rounded=0;orthogonalLoop=1;jettySize=auto;html=1;endArrow=block;endFill=1;" edge="1" parent="1" target="43ggxG55m2cgRZ3vXhze-30">
          <mxGeometry relative="1" as="geometry">
            <mxPoint x="130" y="120" as="sourcePoint" />
            <Array as="points">
              <mxPoint x="130" y="180" />
              <mxPoint x="80" y="180" />
              <mxPoint x="80" y="270" />
              <mxPoint x="50" y="270" />
            </Array>
          </mxGeometry>
        </mxCell>
        <mxCell id="D8UodOY2xaZe4jPJJZOA-28" value="Enemys" style="swimlane;html=1;fontStyle=0;childLayout=stackLayout;horizontal=1;startSize=26;fillColor=none;horizontalStack=0;resizeParent=1;resizeLast=0;collapsible=1;marginBottom=0;swimlaneFillColor=#ffffff;rounded=0;shadow=0;comic=0;labelBackgroundColor=none;strokeWidth=1;fontFamily=Verdana;fontSize=10;align=center;" vertex="1" parent="1">
          <mxGeometry x="100.5" y="40" width="160" height="83" as="geometry" />
        </mxCell>
        <mxCell id="D8UodOY2xaZe4jPJJZOA-29" value="+ Interact" style="text;html=1;strokeColor=none;fillColor=none;align=left;verticalAlign=top;spacingLeft=4;spacingRight=4;whiteSpace=wrap;overflow=hidden;rotatable=0;points=[[0,0.5],[1,0.5]];portConstraint=eastwest;" vertex="1" parent="D8UodOY2xaZe4jPJJZOA-28">
          <mxGeometry y="26" width="160" height="26" as="geometry" />
        </mxCell>
        <mxCell id="D8UodOY2xaZe4jPJJZOA-30" value="+ TakeDamage" style="text;html=1;strokeColor=none;fillColor=none;align=left;verticalAlign=top;spacingLeft=4;spacingRight=4;whiteSpace=wrap;overflow=hidden;rotatable=0;points=[[0,0.5],[1,0.5]];portConstraint=eastwest;" vertex="1" parent="D8UodOY2xaZe4jPJJZOA-28">
          <mxGeometry y="52" width="160" height="26" as="geometry" />
        </mxCell>
        <mxCell id="D8UodOY2xaZe4jPJJZOA-31" value="Objects" style="swimlane;html=1;fontStyle=0;childLayout=stackLayout;horizontal=1;startSize=26;fillColor=none;horizontalStack=0;resizeParent=1;resizeLast=0;collapsible=1;marginBottom=0;swimlaneFillColor=#ffffff;rounded=0;shadow=0;comic=0;labelBackgroundColor=none;strokeWidth=1;fontFamily=Verdana;fontSize=10;align=center;" vertex="1" parent="1">
          <mxGeometry x="290.5" y="40" width="160" height="83" as="geometry" />
        </mxCell>
        <mxCell id="D8UodOY2xaZe4jPJJZOA-32" value="+ Interact()" style="text;html=1;strokeColor=none;fillColor=none;align=left;verticalAlign=top;spacingLeft=4;spacingRight=4;whiteSpace=wrap;overflow=hidden;rotatable=0;points=[[0,0.5],[1,0.5]];portConstraint=eastwest;" vertex="1" parent="D8UodOY2xaZe4jPJJZOA-31">
          <mxGeometry y="26" width="160" height="26" as="geometry" />
        </mxCell>
        <mxCell id="D8UodOY2xaZe4jPJJZOA-33" value="+ Destroy()" style="text;html=1;strokeColor=none;fillColor=none;align=left;verticalAlign=top;spacingLeft=4;spacingRight=4;whiteSpace=wrap;overflow=hidden;rotatable=0;points=[[0,0.5],[1,0.5]];portConstraint=eastwest;" vertex="1" parent="D8UodOY2xaZe4jPJJZOA-31">
          <mxGeometry y="52" width="160" height="26" as="geometry" />
        </mxCell>
        <mxCell id="D8UodOY2xaZe4jPJJZOA-35" value="" style="endArrow=block;dashed=1;endFill=1;endSize=6;html=1;rounded=0;exitX=0.5;exitY=1;exitDx=0;exitDy=0;entryX=0.75;entryY=0;entryDx=0;entryDy=0;edgeStyle=orthogonalEdgeStyle;" edge="1" parent="1" source="D8UodOY2xaZe4jPJJZOA-31" target="KSBj_jXbZ4zNxcjZg9bY-2">
          <mxGeometry width="160" relative="1" as="geometry">
            <mxPoint x="-930" y="788" as="sourcePoint" />
            <mxPoint x="-750" y="708" as="targetPoint" />
          </mxGeometry>
        </mxCell>
        <mxCell id="D8UodOY2xaZe4jPJJZOA-37" value="" style="endArrow=block;endFill=0;endSize=6;html=1;rounded=0;exitX=0.5;exitY=1;exitDx=0;exitDy=0;dashed=1;edgeStyle=orthogonalEdgeStyle;" edge="1" parent="1" source="D8UodOY2xaZe4jPJJZOA-18" target="KSBj_jXbZ4zNxcjZg9bY-2">
          <mxGeometry width="160" relative="1" as="geometry">
            <mxPoint x="-740" y="718" as="sourcePoint" />
            <mxPoint x="-130" y="240" as="targetPoint" />
            <Array as="points">
              <mxPoint x="-335" y="220" />
              <mxPoint x="179" y="220" />
            </Array>
          </mxGeometry>
        </mxCell>
        <mxCell id="D8UodOY2xaZe4jPJJZOA-38" style="edgeStyle=orthogonalEdgeStyle;rounded=0;orthogonalLoop=1;jettySize=auto;html=1;entryX=0.5;entryY=0;entryDx=0;entryDy=0;exitX=0.75;exitY=0;exitDx=0;exitDy=0;" edge="1" parent="1" source="D8UodOY2xaZe4jPJJZOA-1" target="D8UodOY2xaZe4jPJJZOA-31">
          <mxGeometry relative="1" as="geometry">
            <Array as="points">
              <mxPoint x="-620" y="130" />
              <mxPoint x="-570" y="130" />
              <mxPoint x="-570" y="20" />
              <mxPoint x="370" y="20" />
            </Array>
            <mxPoint x="-550" y="360" as="sourcePoint" />
          </mxGeometry>
        </mxCell>
        <mxCell id="Rh1y7PiZWF1uknGt1DZ_-3" style="edgeStyle=orthogonalEdgeStyle;rounded=0;orthogonalLoop=1;jettySize=auto;html=1;entryX=0;entryY=0.75;entryDx=0;entryDy=0;endArrow=block;endFill=1;" edge="1" parent="1" source="Rh1y7PiZWF1uknGt1DZ_-2" target="KSBj_jXbZ4zNxcjZg9bY-3">
          <mxGeometry relative="1" as="geometry" />
        </mxCell>
        <mxCell id="Rh1y7PiZWF1uknGt1DZ_-2" value="Item" style="rounded=0;whiteSpace=wrap;html=1;fontSize=24;" vertex="1" parent="1">
          <mxGeometry x="-490" y="545" width="102" height="65" as="geometry" />
        </mxCell>
        <mxCell id="Rh1y7PiZWF1uknGt1DZ_-6" value="1" style="text;html=1;align=center;verticalAlign=middle;resizable=0;points=[];autosize=1;strokeColor=none;fillColor=none;" vertex="1" parent="1">
          <mxGeometry x="-580" y="490" width="30" height="30" as="geometry" />
        </mxCell>
        <mxCell id="Rh1y7PiZWF1uknGt1DZ_-7" value="*" style="text;html=1;align=center;verticalAlign=middle;resizable=0;points=[];autosize=1;strokeColor=none;fillColor=none;" vertex="1" parent="1">
          <mxGeometry x="-520" y="555" width="30" height="30" as="geometry" />
        </mxCell>
        <mxCell id="Rh1y7PiZWF1uknGt1DZ_-8" value="1" style="text;html=1;align=center;verticalAlign=middle;resizable=0;points=[];autosize=1;strokeColor=none;fillColor=none;" vertex="1" parent="1">
          <mxGeometry x="270" y="500" width="30" height="30" as="geometry" />
        </mxCell>
        <mxCell id="Rh1y7PiZWF1uknGt1DZ_-12" value="*" style="text;html=1;align=center;verticalAlign=middle;resizable=0;points=[];autosize=1;strokeColor=none;fillColor=none;" vertex="1" parent="1">
          <mxGeometry x="414" y="380" width="30" height="30" as="geometry" />
        </mxCell>
        <mxCell id="Rh1y7PiZWF1uknGt1DZ_-13" value="1" style="text;html=1;align=center;verticalAlign=middle;resizable=0;points=[];autosize=1;strokeColor=none;fillColor=none;" vertex="1" parent="1">
          <mxGeometry x="-660" y="370" width="30" height="30" as="geometry" />
        </mxCell>
        <mxCell id="Rh1y7PiZWF1uknGt1DZ_-14" value="1" style="text;html=1;align=center;verticalAlign=middle;resizable=0;points=[];autosize=1;strokeColor=none;fillColor=none;" vertex="1" parent="1">
          <mxGeometry x="-660" y="432.5" width="30" height="30" as="geometry" />
        </mxCell>
        <mxCell id="Rh1y7PiZWF1uknGt1DZ_-15" value="1" style="text;html=1;align=center;verticalAlign=middle;resizable=0;points=[];autosize=1;strokeColor=none;fillColor=none;" vertex="1" parent="1">
          <mxGeometry x="-840" y="300" width="30" height="30" as="geometry" />
        </mxCell>
        <mxCell id="Rh1y7PiZWF1uknGt1DZ_-16" value="1" style="text;html=1;align=center;verticalAlign=middle;resizable=0;points=[];autosize=1;strokeColor=none;fillColor=none;" vertex="1" parent="1">
          <mxGeometry x="-770" y="305" width="30" height="30" as="geometry" />
        </mxCell>
        <mxCell id="Rh1y7PiZWF1uknGt1DZ_-17" value="1" style="text;html=1;align=center;verticalAlign=middle;resizable=0;points=[];autosize=1;strokeColor=none;fillColor=none;" vertex="1" parent="1">
          <mxGeometry x="-590" y="185" width="30" height="30" as="geometry" />
        </mxCell>
        <mxCell id="Rh1y7PiZWF1uknGt1DZ_-18" value="1" style="text;html=1;align=center;verticalAlign=middle;resizable=0;points=[];autosize=1;strokeColor=none;fillColor=none;" vertex="1" parent="1">
          <mxGeometry x="-455" y="140" width="30" height="30" as="geometry" />
        </mxCell>
        <mxCell id="Rh1y7PiZWF1uknGt1DZ_-19" value="1" style="text;html=1;align=center;verticalAlign=middle;resizable=0;points=[];autosize=1;strokeColor=none;fillColor=none;" vertex="1" parent="1">
          <mxGeometry x="500" y="420" width="30" height="30" as="geometry" />
        </mxCell>
        <mxCell id="Rh1y7PiZWF1uknGt1DZ_-20" value="1" style="text;html=1;align=center;verticalAlign=middle;resizable=0;points=[];autosize=1;strokeColor=none;fillColor=none;" vertex="1" parent="1">
          <mxGeometry x="340" y="420" width="30" height="30" as="geometry" />
        </mxCell>
        <mxCell id="Rh1y7PiZWF1uknGt1DZ_-21" value="1" style="text;html=1;align=center;verticalAlign=middle;resizable=0;points=[];autosize=1;strokeColor=none;fillColor=none;" vertex="1" parent="1">
          <mxGeometry x="500" y="540" width="30" height="30" as="geometry" />
        </mxCell>
        <mxCell id="Rh1y7PiZWF1uknGt1DZ_-23" value="1" style="text;html=1;align=center;verticalAlign=middle;resizable=0;points=[];autosize=1;strokeColor=none;fillColor=none;" vertex="1" parent="1">
          <mxGeometry x="97.75" y="700" width="30" height="30" as="geometry" />
        </mxCell>
      </root>
    </mxGraphModel>
  </diagram>
</mxfile>
